<svg id="copy_outline" xmlns="http://www.w3.org/2000/svg" width="24" height="24" viewBox="0 0 24 24">
  <path id="Pfad_11" data-name="Pfad 11" d="M0,0H24V24H0Z" fill="none"/>
  <path id="Pfad_12" data-name="Pfad 12" d="M25,4.75V20.875a.752.752,0,0,1-.75.75H17.5V20.5h6.375V5.125h-10.5v1.5H12.251V4.75A.752.752,0,0,1,13,4h11.25A.752.752,0,0,1,25,4.75ZM15.626,8.5H5.126V23.875h10.5V8.5M16,7.375a.752.752,0,0,1,.75.75V24.25A.752.752,0,0,1,16,25H4.751A.752.752,0,0,1,4,24.25V8.125a.752.752,0,0,1,.75-.75Z" transform="translate(-2.501 -2.5)" fill="#0c1b5a"/>
</svg>
