<svg id="icon_action_filter_default" data-name="icon/action/filter/default" xmlns="http://www.w3.org/2000/svg" width="24" height="24" viewBox="0 0 24 24">
  <path id="Shape" d="M10.25,19.5A2.75,2.75,0,1,1,13,16.75,2.754,2.754,0,0,1,10.25,19.5Zm9.75-2H14.43a4.158,4.158,0,0,0,.07-.75,4.071,4.071,0,0,0-.031-.5L14.43,16H20v1.5Zm-13.93,0H0V16H6.07A4.156,4.156,0,0,0,6,16.75a4.071,4.071,0,0,0,.031.5l.038.245Zm-3.319-5A2.75,2.75,0,1,1,5.5,9.75,2.754,2.754,0,0,1,2.75,12.5ZM20,10.5H6.93A4.121,4.121,0,0,0,7,9.75a4.019,4.019,0,0,0-.032-.5L6.93,9H20v1.5Zm-7.25-5A2.75,2.75,0,1,1,15.5,2.75,2.753,2.753,0,0,1,12.75,5.5ZM20,3.5H16.93A4.158,4.158,0,0,0,17,2.75a3.91,3.91,0,0,0-.032-.5L16.93,2H20V3.5ZM8.57,3.5H0V2H8.57a4.163,4.163,0,0,0-.07.751,4.074,4.074,0,0,0,.032.5L8.57,3.5Z" transform="translate(2 2.5)" fill="#ffffff"/>
</svg>
