<svg id="icon_action_remove_default" data-name="icon/action/remove/default" xmlns="http://www.w3.org/2000/svg" width="24" height="24" viewBox="0 0 24 24">
  <path id="Shape" d="M14.9,23H5.65a3.02,3.02,0,0,1-2.984-2.674L2.65,20.15,1.8,4.5H.75a.75.75,0,0,1-.1-1.493L.75,3h5.5V0h8V3h5.5a.75.75,0,0,1,.1,1.493l-.1.007H18.7l-.8,15.65A3.024,3.024,0,0,1,15.077,23ZM3.3,4.5l.85,15.6a1.485,1.485,0,0,0,1.361,1.394l.14.006h9.2a1.487,1.487,0,0,0,1.485-1.261l.015-.139L17.2,4.5H3.3Zm4.45-3V3h5V1.5Zm6,17.249a.769.769,0,0,1-.743-.651L13,18V8a.75.75,0,0,1,1.493-.1L14.5,8V18A.769.769,0,0,1,13.75,18.75Zm-3.5,0a.769.769,0,0,1-.743-.651L9.5,18V8a.749.749,0,0,1,1.492-.1L11,8V18A.769.769,0,0,1,10.25,18.75Zm-3.5,0a.767.767,0,0,1-.742-.651L6,18V8a.749.749,0,0,1,1.492-.1L7.5,8V18A.769.769,0,0,1,6.75,18.75Z" transform="translate(1.75 0.5)" fill="#0c1b5a"/>
</svg>
