<svg id="icon_search" xmlns="http://www.w3.org/2000/svg" width="24" height="24" viewBox="0 0 24 24">
  <path id="Combined_Shape" data-name="Combined Shape" d="M18.494,19.725a1.256,1.256,0,0,1-.893-.375l-4.9-4.9A7.729,7.729,0,0,1,8,16,8.009,8.009,0,0,1,0,8,7.912,7.912,0,0,1,2.375,2.35,7.992,7.992,0,0,1,14.5,12.7l4.9,4.9a1.309,1.309,0,0,1,.331.893,1.167,1.167,0,0,1-.382.856A1.135,1.135,0,0,1,18.494,19.725ZM8,1.5A6.5,6.5,0,1,0,14.5,8,6.507,6.507,0,0,0,8,1.5Z" transform="translate(2 2)" fill="#000094"/>
</svg>
