<svg id="icon_user" xmlns="http://www.w3.org/2000/svg" width="24" height="24" viewBox="0 0 24 24">
  <path id="Shape" d="M20.45,19.5H0l.15-1.05a4.733,4.733,0,0,1,4.474-3.945L4.85,14.5H7.1l3.1,3.1,3.1-3.1h2.25a4.735,4.735,0,0,1,4.657,3.73l.043.221.2,1.049ZM10.2,13a5.519,5.519,0,0,1-4.35-2.225A7.82,7.82,0,0,1,4.2,6,6.023,6.023,0,0,1,5.887,1.688,6.021,6.021,0,0,1,10.2,0a6.022,6.022,0,0,1,4.313,1.688A6.022,6.022,0,0,1,16.2,6a7.819,7.819,0,0,1-1.65,4.774A5.52,5.52,0,0,1,10.2,13Zm0-11.5A4.352,4.352,0,0,0,5.7,6c0,2.656,1.808,5.5,4.5,5.5S14.7,8.656,14.7,6A4.352,4.352,0,0,0,10.2,1.5Z" transform="translate(1.8 2)" fill="#000094"/>
</svg>
