<svg id="text-file_outline" xmlns="http://www.w3.org/2000/svg" width="24" height="24" viewBox="0 0 24 24">
  <path id="Pfad_8" data-name="Pfad 8" d="M0,0H24V24H0Z" fill="none"/>
  <path id="Pfad_9" data-name="Pfad 9" d="M20.625,4V4L9.751,4a.751.751,0,0,0-.75.75v19.5a.751.751,0,0,0,.75.75H25.5a.751.751,0,0,0,.75-.75V9.625Zm0,1.591,4.033,4.032H21a.375.375,0,0,1-.375-.375Zm4.5,18.282h-15V5.127h9.75V9.25A1.126,1.126,0,0,0,21,10.375h4.125Zm-12-11.815v.565h9V12.06a.561.561,0,0,0-.559-.56H13.687A.561.561,0,0,0,13.127,12.06Zm0,7.879a.562.562,0,0,0,.56.561h7.881a.562.562,0,0,0,.559-.561V13.375h-9v6.564Zm1.5-5.439h6v.75h-6V14.5Zm0,1.875h6v.75h-6v-.75Zm0,1.875h3.75V19h-3.75v-.75Z" transform="translate(-5.626 -2.5)" fill="#2a2a2a"/>
</svg>
